<?xml version="1.0" standalone="no"?>
<!DOCTYPE svg PUBLIC "-//W3C//DTD SVG 20010904//EN"
 "http://www.w3.org/TR/2001/REC-SVG-20010904/DTD/svg10.dtd">
<svg version="1.0" xmlns="http://www.w3.org/2000/svg"
 width="512.000000pt" height="512.000000pt" viewBox="0 0 512.000000 512.000000"
 preserveAspectRatio="xMidYMid meet">

<g transform="translate(0.000000,512.000000) scale(0.100000,-0.100000)"
fill="#000000" stroke="none">
<path d="M2386 4853 c-17 -4 -18 -12 -12 -73 l7 -67 -47 -7 c-85 -11 -81 -14
-89 64 l-7 70 -43 0 c-24 0 -46 -4 -50 -9 -3 -5 9 -81 25 -168 44 -225 36
-205 79 -201 20 2 35 8 34 14 -1 7 -5 41 -9 77 l-7 65 52 7 c29 4 55 4 58 1 3
-3 8 -39 11 -81 l5 -75 38 0 39 0 0 195 0 195 -32 -1 c-18 -1 -41 -3 -52 -6z"/>
<path d="M2612 4829 c-62 -31 -92 -87 -92 -171 0 -111 54 -185 141 -195 38 -4
51 0 94 29 67 45 100 110 100 194 0 67 -16 99 -68 138 -40 30 -122 32 -175 5z
m129 -88 c32 -26 34 -106 3 -148 -61 -82 -156 -26 -138 81 12 75 82 110 135
67z"/>
<path d="M1901 4789 c-76 -23 -111 -67 -111 -142 0 -90 85 -204 171 -227 34
-10 50 -9 85 5 50 19 71 48 83 111 l9 46 -30 -6 c-17 -3 -37 -6 -44 -6 -8 0
-19 -11 -24 -25 -5 -14 -21 -30 -35 -37 -21 -10 -30 -8 -52 8 -44 33 -65 69
-67 114 0 31 4 46 19 56 24 18 79 18 94 0 9 -10 22 -11 61 -3 l49 9 -14 28
c-30 57 -123 90 -194 69z"/>
<path d="M2994 4756 c-88 -39 -141 -184 -100 -279 57 -134 241 -103 320 55 47
94 25 180 -54 220 -41 21 -122 23 -166 4z m117 -87 c50 -26 38 -113 -23 -164
-55 -47 -118 -23 -118 45 0 98 70 157 141 119z"/>
<path d="M1562 4678 c-80 -27 -111 -91 -77 -158 23 -44 63 -60 149 -60 66 0
77 -3 90 -22 14 -19 14 -24 2 -37 -12 -11 -20 -12 -44 -2 -25 11 -35 10 -61
-3 -39 -21 -39 -30 2 -54 49 -30 90 -35 132 -17 49 20 64 41 65 88 0 87 -49
127 -158 127 -74 0 -100 14 -88 46 5 13 15 15 45 10 25 -4 52 0 76 10 l38 16
-29 28 c-34 34 -91 45 -142 28z"/>
<path d="M3306 4587 c-29 -50 -74 -128 -100 -172 l-46 -79 78 -37 c42 -21 77
-37 78 -36 0 1 10 16 22 33 l21 31 -39 18 c-22 10 -40 22 -40 27 0 5 22 41 48
81 27 40 65 97 84 128 l36 56 -44 21 -44 22 -54 -93z"/>
<path d="M1323 4550 c-18 -11 -33 -22 -33 -26 0 -3 20 -29 45 -57 25 -29 45
-54 45 -57 0 -3 -23 -20 -51 -38 l-51 -34 -56 56 -55 55 -38 -27 c-21 -15 -38
-29 -36 -32 1 -3 54 -52 117 -110 63 -57 131 -118 150 -136 l35 -33 30 24 30
24 -58 59 -59 59 48 32 c55 36 59 37 76 13 7 -10 29 -38 50 -61 30 -36 39 -41
55 -32 50 29 52 22 -72 185 -65 86 -123 156 -129 156 -6 0 -26 -9 -43 -20z"/>
<path d="M3472 4402 l-123 -156 23 -18 c34 -26 42 -23 88 29 l42 48 36 -21
c53 -30 87 -36 134 -23 48 12 104 63 114 103 14 56 -21 97 -146 169 l-45 25
-123 -156z m187 19 c51 -39 -4 -100 -65 -72 -31 14 -30 28 3 63 31 33 31 33
62 9z"/>
<path d="M3727 4223 l-156 -135 29 -25 30 -25 62 46 c35 26 64 42 66 36 2 -5
-13 -36 -32 -69 -20 -32 -36 -63 -36 -68 0 -5 13 -22 29 -37 l29 -27 43 69 44
69 56 -5 c99 -8 180 56 163 131 -6 29 -83 113 -145 157 l-25 19 -157 -136z
m196 -21 c25 -26 26 -29 11 -50 -21 -30 -64 -29 -93 2 l-23 25 28 25 c37 32
44 32 77 -2z"/>
<path d="M952 4269 c-49 -25 -89 -72 -98 -116 -20 -100 94 -199 241 -211 78
-6 126 10 165 54 24 28 30 43 30 82 -1 26 -6 56 -13 68 -15 26 -81 84 -95 84
-6 0 -38 -25 -72 -56 l-61 -57 33 -22 33 -23 32 30 c32 31 53 31 53 -2 0 -44
-41 -80 -91 -80 -55 0 -149 71 -149 113 0 17 59 67 80 67 12 0 39 14 61 32
l40 32 -23 13 c-36 20 -117 16 -166 -8z"/>
<path d="M2825 4245 c48 -151 68 -446 44 -663 -17 -164 -77 -402 -134 -535
l-16 -38 -72 62 c-40 35 -56 46 -37 25 l35 -37 1 -594 c1 -332 -3 -592 -7
-589 -5 3 -9 20 -10 37 0 37 -27 171 -28 144 -1 -9 7 -61 16 -115 24 -140 23
-534 -1 -694 -10 -64 -15 -122 -11 -128 3 -5 1 -10 -4 -10 -6 0 -11 -7 -11
-17 0 -20 39 34 107 147 176 298 301 598 393 948 l11 43 58 -41 c59 -41 59
-41 91 -25 17 9 41 15 53 13 12 -1 40 10 62 25 48 32 71 34 80 6 5 -16 12 -19
30 -15 36 9 48 -14 37 -73 -8 -44 -6 -57 11 -89 13 -23 22 -63 25 -107 4 -62
1 -76 -24 -125 -19 -37 -30 -79 -35 -130 -4 -41 -13 -93 -21 -115 -8 -22 -18
-55 -21 -72 -6 -30 -4 -33 20 -33 53 0 140 129 217 323 52 128 69 204 86 381
13 133 8 214 -21 359 -67 334 -257 627 -540 830 l-72 52 -23 105 c-50 220
-135 456 -239 656 -31 60 -53 100 -50 89z m540 -1095 c4 -6 10 -8 15 -5 12 7
57 -22 64 -41 4 -10 0 -14 -12 -12 -9 2 -16 -3 -14 -9 3 -19 -13 -16 -30 5
-27 32 -49 72 -39 72 5 0 13 -5 16 -10z m-79 -69 c38 -19 76 -51 59 -51 -14 0
-105 53 -105 62 0 11 0 11 46 -11z m-61 -11 c4 -6 28 -21 55 -35 27 -14 56
-35 64 -47 18 -25 21 -17 6 13 -12 22 8 27 28 7 14 -14 42 -20 42 -8 0 4 -7
10 -15 14 -14 5 -22 36 -10 36 3 0 20 -16 37 -36 23 -26 38 -34 57 -32 21 2
30 -4 49 -40 22 -39 23 -45 9 -59 -12 -13 -21 -14 -48 -4 -39 14 -46 9 -31
-24 14 -31 0 -33 -42 -6 -17 11 -33 18 -38 15 -14 -9 -38 11 -57 47 -21 39
-37 40 -108 9 l-43 -19 0 70 c0 81 24 133 45 99z m445 -346 c0 -8 -4 -12 -10
-9 -5 3 -10 13 -10 21 0 8 5 12 10 9 6 -3 10 -13 10 -21z m40 -87 c0 -5 -4 -5
-10 -2 -5 3 -10 14 -10 23 0 15 2 15 10 2 5 -8 10 -19 10 -23z m-1063 -814
c-3 -10 -5 -4 -5 12 0 17 2 24 5 18 2 -7 2 -21 0 -30z m0 -480 c-2 -16 -4 -3
-4 27 0 30 2 43 4 28 2 -16 2 -40 0 -55z m-1 -100 c-1 -38 -8 -79 -16 -93 -19
-35 -24 -11 -11 50 6 28 11 64 11 80 0 17 4 30 9 30 5 0 8 -30 7 -67z"/>
<path d="M3970 3997 c-97 -56 -177 -106 -179 -110 -2 -5 21 -41 50 -80 29 -40
54 -73 55 -75 3 -5 84 30 84 37 0 3 -14 24 -30 45 -17 22 -30 43 -30 48 0 5
16 16 35 25 35 16 36 16 51 -6 9 -12 26 -33 37 -46 22 -23 23 -23 61 -6 l38
17 -36 47 c-20 26 -36 49 -36 51 0 4 58 26 70 26 3 0 24 -24 45 -53 l39 -54
40 15 c23 9 42 17 44 18 7 5 -147 205 -157 203 -3 0 -85 -47 -181 -102z"/>
<path d="M701 4003 c-17 -21 -31 -40 -31 -43 0 -3 37 -22 83 -42 45 -21 132
-60 194 -88 62 -27 116 -50 120 -49 4 0 18 13 31 29 l22 29 -187 98 c-103 54
-191 99 -194 101 -4 2 -21 -14 -38 -35z"/>
<path d="M2420 3951 c-94 -31 -177 -107 -204 -188 -20 -58 -20 -135 -1 -199
11 -37 12 -50 2 -56 -9 -6 -8 -8 2 -8 22 0 116 -93 118 -117 3 -35 22 -63 49
-73 39 -15 48 -12 62 19 11 25 20 30 69 36 31 4 67 11 79 15 15 6 26 5 34 -5
16 -19 60 -28 76 -14 21 18 7 29 -38 29 l-41 0 40 29 c80 58 123 143 123 241
0 117 -62 217 -170 270 -48 25 -156 36 -200 21z"/>
<path d="M597 3855 c-15 -23 -27 -45 -27 -48 0 -3 30 -15 68 -27 37 -13 71
-26 75 -30 11 -10 -51 -120 -66 -120 -7 0 -41 9 -77 20 -36 11 -70 20 -76 20
-12 0 -58 -90 -50 -98 6 -5 412 -92 433 -92 14 0 55 63 45 71 -4 3 -44 16 -89
29 -92 25 -89 18 -37 101 l23 37 83 -30 83 -29 22 28 c13 15 22 32 20 37 -2 5
-34 21 -72 36 -39 16 -129 53 -201 83 l-131 54 -26 -42z"/>
<path d="M4135 3765 c-104 -41 -194 -75 -198 -77 -5 -2 1 -20 13 -40 l21 -36
71 24 c39 13 72 24 74 24 1 0 16 -22 34 -49 38 -60 94 -91 166 -91 98 0 157
56 135 129 -16 55 -94 186 -111 187 -8 1 -100 -31 -205 -71z m195 -74 c16 -40
10 -63 -20 -71 -35 -10 -62 3 -83 38 l-17 30 42 15 c60 21 64 21 78 -12z"/>
<path d="M2137 3474 c-7 -8 108 -84 126 -83 7 0 2 5 -10 11 -25 12 -31 28 -10
28 6 0 -1 12 -16 25 -26 23 -75 33 -90 19z"/>
<path d="M1786 3409 c-103 -63 -184 -134 -312 -274 -46 -51 -91 -116 -109
-158 l-14 -34 46 24 c111 56 249 10 305 -101 11 -22 22 -42 23 -44 2 -2 17 4
34 12 l31 16 -26 58 c-14 31 -45 94 -69 140 -24 45 -40 80 -35 77 14 -9 12 19
-2 33 -27 27 3 10 48 -28 27 -22 54 -38 61 -36 7 3 15 1 18 -4 3 -4 1 -10 -5
-12 -6 -2 17 -28 51 -59 52 -48 62 -54 77 -43 9 8 25 14 35 14 9 0 17 7 17 15
0 16 21 29 62 39 22 5 26 3 22 -9 -7 -17 11 -21 21 -5 3 6 14 10 24 10 20 0
74 39 56 40 -6 0 -16 -5 -23 -12 -9 -9 -16 -8 -29 5 -13 13 -15 19 -5 29 16
16 15 28 -3 28 -8 0 -15 5 -15 10 0 6 7 10 15 10 22 0 19 7 -25 60 -38 45 -43
48 -69 39 -16 -6 -33 -21 -39 -34 -7 -14 -16 -25 -22 -25 -13 0 -13 37 -1 45
5 3 -1 16 -15 30 -30 30 -31 56 -3 73 21 13 21 14 -22 58 -24 24 -46 44 -49
43 -3 0 -27 -14 -54 -30z m28 -274 c8 -21 -12 -27 -49 -16 l-30 9 25 10 c35
15 47 14 54 -3z m36 -56 c0 -5 -6 -9 -14 -9 -8 0 -16 -6 -19 -12 -7 -21 -17
-4 -11 19 4 14 11 19 25 16 10 -3 19 -9 19 -14z"/>
<path d="M1304 2588 c3 -17 17 -46 31 -64 14 -18 25 -35 25 -38 0 -3 -35 -6
-77 -6 -129 0 -469 -35 -486 -50 -4 -4 26 -10 69 -13 200 -17 455 -89 654
-184 63 -30 123 -56 133 -58 17 -4 18 5 17 103 -2 178 -3 172 22 172 47 0 8 9
-86 19 -55 7 -102 14 -105 17 -3 3 0 14 7 24 11 19 9 20 -33 20 -47 0 -102 27
-139 69 -27 30 -40 26 -32 -11z"/>
<path d="M1656 2592 c-2 -4 6 -18 20 -31 13 -13 21 -27 18 -32 -3 -5 9 -9 25
-9 39 0 39 5 0 38 -42 36 -57 44 -63 34z"/>
<path d="M1774 2497 c0 -12 3 -24 8 -28 10 -7 78 1 78 10 0 9 -40 32 -64 37
-17 3 -22 -1 -22 -19z"/>
<path d="M1675 2480 c3 -5 10 -10 16 -10 5 0 9 5 9 10 0 6 -7 10 -16 10 -8 0
-12 -4 -9 -10z"/>
<path d="M1888 2463 c7 -3 16 -2 19 1 4 3 -2 6 -13 5 -11 0 -14 -3 -6 -6z"/>
<path d="M1728 2443 c6 -2 18 -2 25 0 6 3 1 5 -13 5 -14 0 -19 -2 -12 -5z"/>
<path d="M1650 2153 c0 -10 -13 -33 -29 -50 -35 -38 -50 -91 -30 -104 11 -6
11 -11 1 -21 -16 -16 -15 -48 2 -67 7 -9 35 -58 62 -110 36 -70 59 -101 89
-123 22 -15 50 -35 62 -44 19 -14 30 -46 38 -111 13 -103 7 -95 112 -131 52
-18 131 -49 174 -69 65 -29 81 -33 94 -23 8 7 15 19 15 27 0 7 8 17 18 20 25
10 41 34 42 65 0 17 10 33 26 46 l27 19 -52 76 c-142 211 -335 403 -561 559
-91 62 -90 62 -90 41z"/>
<path d="M2581 2144 c0 -11 3 -14 6 -6 3 7 2 16 -1 19 -3 4 -6 -2 -5 -13z"/>
<path d="M2591 2094 c0 -11 3 -14 6 -6 3 7 2 16 -1 19 -3 4 -6 -2 -5 -13z"/>
<path d="M2493 1928 c3 -7 15 -56 27 -109 l23 -96 35 39 c27 30 36 48 35 73
-1 41 -9 55 -32 55 -9 0 -32 11 -51 25 -38 28 -44 30 -37 13z"/>
<path d="M980 1473 c-168 -14 -613 -106 -593 -123 80 -69 435 -380 454 -397
l26 -24 79 43 79 43 0 233 c0 127 0 231 0 230 0 -1 -20 -3 -45 -5z"/>
<path d="M4130 1476 c0 -4 5 -16 10 -27 7 -13 7 -19 1 -19 -7 0 -7 -9 -1 -26
6 -14 6 -23 1 -20 -5 3 -6 -8 -2 -27 8 -42 7 -59 -3 -76 -6 -10 -5 -12 2 -7
15 9 15 -7 1 -21 -8 -8 -9 -20 -1 -41 6 -17 8 -33 5 -36 -4 -3 -7 -42 -7 -85
l-1 -80 72 -37 c64 -32 75 -35 90 -23 55 44 443 393 443 399 0 11 -198 66
-340 94 -135 27 -270 43 -270 32z"/>
<path d="M591 1100 c196 -242 263 -325 264 -328 1 -1 55 25 121 58 440 220
959 256 1424 100 63 -22 106 -32 95 -24 -43 33 -241 124 -336 154 -61 20 -96
36 -88 40 19 13 -44 40 -92 40 -36 0 -40 -2 -29 -15 12 -14 8 -15 -31 -8 -24
4 -127 8 -229 7 -161 0 -201 -4 -311 -27 -147 -31 -297 -81 -428 -143 -78 -37
-97 -42 -110 -32 -9 7 -79 67 -156 132 -77 66 -149 127 -160 135 -10 9 19 -31
66 -89z"/>
<path d="M4435 1038 c-66 -55 -129 -106 -141 -114 -18 -12 -30 -9 -128 40
-458 230 -978 222 -1464 -23 -45 -23 -82 -43 -82 -45 0 -2 51 13 113 34 184
62 409 100 596 100 275 0 641 -90 884 -217 58 -31 70 -34 81 -22 28 30 267
341 264 343 -2 2 -57 -42 -123 -96z"/>
<path d="M2326 755 c-22 -8 -53 -28 -70 -45 -28 -27 -31 -37 -31 -90 0 -51 4
-63 29 -89 16 -16 54 -40 85 -52 127 -50 141 -61 121 -100 -16 -29 -65 -25
-86 6 -15 23 -23 25 -85 25 -76 0 -82 -6 -54 -59 65 -127 309 -130 361 -5 29
69 10 137 -48 172 -18 11 -61 30 -96 42 -70 26 -97 52 -81 82 14 26 69 25 76
-2 5 -18 14 -20 80 -20 l76 0 -7 33 c-17 89 -157 142 -270 102z"/>
<path d="M1720 583 c0 -199 9 -235 68 -285 82 -69 244 -53 315 32 39 46 47 90
47 268 l0 162 -70 0 -70 0 0 -168 c0 -163 -1 -169 -23 -190 -34 -32 -89 -30
-116 4 -19 25 -21 40 -21 190 l0 164 -65 0 -65 0 0 -177z"/>
<path d="M2830 757 c0 -2 -32 -91 -71 -198 -39 -107 -79 -218 -90 -247 l-18
-53 71 3 71 3 12 35 12 35 95 3 95 3 12 -41 12 -40 69 0 c39 0 70 3 70 8 0 4
-40 115 -88 247 l-88 240 -82 3 c-45 2 -82 1 -82 -1z m109 -219 c13 -40 26
-79 28 -85 4 -10 -10 -13 -51 -13 -33 0 -56 4 -56 11 0 18 45 159 51 159 3 0
16 -33 28 -72z"/>
</g>
</svg>
